<svg xmlns="http://www.w3.org/2000/svg" viewBox="0 0 1300 1300" role="img" aria-label="Yantra Works Logo">
  <title>Yantra Works Logo</title>
  <defs>
    <linearGradient id="yantra-gradient" x1="0%" y1="0%" x2="100%" y2="100%">
      <stop offset="0%" stop-color="#B03060"/>
      <stop offset="100%" stop-color="#09A1A1"/>
    </linearGradient>
  </defs>
  <path fill="url(#yantra-gradient)" d="M1018.76,469.43l-1.42-1.4.4-.42-37.33-35.97-7.08-6.97-.08.08-49.7-47.88-40.79,42.33,49.22,47.43-250.73,254.48-1.32-195.47,155.07-155.55.37.37,42.88-42.58-226.38-227.94-1.41,1.4-.43-.44-188.96,187.41-.09-.09-6.21,6.35-170.73,169.33.67.67-2.57,2.54,325.25,328.97-.16.16,12.35,12.17,30.65,31,.41-.4,2.02,1.99,366.11-371.57ZM619.08,527.81l1.3,192.64-251.12-253.99,92.94-92.18,156.88,153.53ZM652.12,185.91l141.95,142.93-143.98,144.42-144.81-141.71,146.84-145.64Z"/>
</svg>
